<svg width="24" height="24" fill="none" xmlns="http://www.w3.org/2000/svg"><path d="M11.268 19.194a.463.463 0 00-.581.314 5.011 5.011 0 01-4.772 3.553 4.987 4.987 0 01-4.978-4.978c0-3.68 1.294-7.265 3.647-10.096l.792-.952a.695.695 0 01.535-.253c.206 0 .403.094.534.253l.792.952a15.814 15.814 0 013.44 7.537.468.468 0 00.924-.155 16.78 16.78 0 00-3.642-7.982l-.788-.956a1.625 1.625 0 00-1.256-.59c-.487 0-.947.215-1.256.59l-.792.951A16.775 16.775 0 000 18.083a5.921 5.921 0 005.915 5.915 5.869 5.869 0 003.567-1.195 5.974 5.974 0 002.105-3.023.473.473 0 00-.319-.586z" fill="#000"/><path d="M5.69 11.854a.467.467 0 00-.192.633 11.934 11.934 0 011.373 4.687.47.47 0 00.47.431h.037a.467.467 0 00.43-.501 12.695 12.695 0 00-1.48-5.058.47.47 0 00-.638-.192zm.225 8.16a.47.47 0 00.469-.468.47.47 0 00-.469-.469 1 1 0 01-.998-.998c0-.586.042-1.177.131-1.753a.468.468 0 00-.394-.535.468.468 0 00-.534.394c-.094.623-.14 1.26-.14 1.894 0 1.068.867 1.935 1.935 1.935zm0 1.992a3.928 3.928 0 003.923-3.923.47.47 0 00-.468-.468.47.47 0 00-.469.468 2.99 2.99 0 01-2.986 2.986.47.47 0 00-.468.469c0 .258.21.468.468.468zm3.056-6.801a.47.47 0 00.46-.581 14.831 14.831 0 00-1.514-3.83.469.469 0 00-.816.46 13.926 13.926 0 011.42 3.586.46.46 0 00.45.365zM4.11 11.404a.47.47 0 00-.628.216 14.856 14.856 0 00-1.49 6.458c0 .258.21.47.469.47a.47.47 0 00.468-.47c0-2.08.483-4.171 1.397-6.046a.474.474 0 00-.215-.628zm19.884 1.856l-.113-1.233A16.777 16.777 0 0019.053 1.73a5.918 5.918 0 00-8.362 0 5.918 5.918 0 000 8.361 16.784 16.784 0 0010.298 4.833l1.233.113c.052.004.103.004.15.004.431 0 .844-.168 1.153-.478.338-.342.51-.82.469-1.303zm-1.14.642a.703.703 0 01-.557.202l-1.233-.113a15.822 15.822 0 01-9.716-4.56 4.985 4.985 0 010-7.04 4.938 4.938 0 013.52-1.458 4.94 4.94 0 013.52 1.457 15.833 15.833 0 014.56 9.717l.113 1.233a.71.71 0 01-.206.562z" fill="#000"/><path d="M14.863 4.917c.267 0 .516.103.703.29.413.413.802.863 1.149 1.332a.469.469 0 10.754-.558 12.603 12.603 0 00-1.237-1.44 1.917 1.917 0 00-1.369-.566c-.515 0-1.003.201-1.368.567a.467.467 0 10.66.66c.193-.182.446-.285.708-.285zm4.251 4.659a12.023 12.023 0 01-4.288-2.344.468.468 0 10-.61.713 12.723 12.723 0 004.627 2.53.471.471 0 00.586-.314.476.476 0 00-.315-.585zm-1.476-6.44a.467.467 0 10-.661.66 13.934 13.934 0 013.29 5.264.469.469 0 00.6.286.47.47 0 00.29-.595 14.884 14.884 0 00-3.52-5.615zm1.219 8.437a13.716 13.716 0 01-3.54-1.533.465.465 0 00-.641.155.465.465 0 00.154.642 14.69 14.69 0 003.778 1.636.465.465 0 00.576-.323.47.47 0 00-.328-.577zm-6.103-8.437a.467.467 0 00-.661 0 3.932 3.932 0 000 5.55.46.46 0 00.333.135.467.467 0 00.333-.797 2.993 2.993 0 010-4.223.477.477 0 00-.005-.665zm-1.402 13.939a.464.464 0 00-.469.469.464.464 0 00.469.469.464.464 0 00.469-.469.484.484 0 00-.136-.333.472.472 0 00-.333-.136z" fill="#000"/></svg>