<svg width="24" height="19" fill="none" xmlns="http://www.w3.org/2000/svg"><path d="M23.653 9.802a5.68 5.68 0 00-1.926-2.616 5.381 5.381 0 00-2.096-.947 5.761 5.761 0 00-1.284-4.252C17.287.707 15.764 0 14.057 0h-.276c-1.195 0-2.353.422-3.351 1.223a.965.965 0 01-.6.211.965.965 0 01-.6-.21C8.236.421 7.078 0 5.883 0h-.277C4.373 0 3.22.375 2.273 1.078A5.592 5.592 0 00.347 3.694a5.582 5.582 0 00-.192 3.225c.272 1.144.914 2.16 1.856 2.948.717.6 1.505 1.116 2.339 1.533a5.584 5.584 0 00.14 1.627c.272 1.143.915 2.16 1.857 2.948a12.225 12.225 0 0015.647 0c.942-.787 1.584-1.805 1.856-2.948a5.583 5.583 0 00-.197-3.225zm-19.153.6a11.218 11.218 0 01-1.88-1.27C.792 7.607.712 5.488 1.242 4.016c.535-1.481 1.964-3.06 4.36-3.06h.276c.975 0 1.927.35 2.752 1.012.337.272.764.422 1.195.422.431 0 .858-.15 1.195-.422.825-.666 1.777-1.013 2.752-1.013h.276c1.416 0 2.677.582 3.554 1.64a4.796 4.796 0 011.073 3.516 5.827 5.827 0 00-.29-.009h-.277c-1.195 0-2.353.422-3.352 1.224a.965.965 0 01-.6.21.965.965 0 01-.6-.21c-.998-.802-2.156-1.224-3.351-1.224h-.277A5.554 5.554 0 006.595 7.18 5.592 5.592 0 004.67 9.797a9.69 9.69 0 00-.169.605zm16.88 4.837a11.276 11.276 0 01-7.21 2.611c-2.63 0-5.198-.928-7.214-2.61-1.828-1.524-1.908-3.643-1.378-5.115.534-1.481 1.964-3.06 4.36-3.06h.276c.975 0 1.927.35 2.752 1.012a1.92 1.92 0 001.195.421c.431 0 .858-.15 1.195-.421.825-.666 1.777-1.013 2.752-1.013h.276c2.396 0 3.825 1.584 4.36 3.061.544 1.472.464 3.59-1.364 5.114z" fill="#000"/></svg>