<svg width="17" height="24" fill="none" xmlns="http://www.w3.org/2000/svg"><path d="M11.47 14.321c.46.732 1.186 1.13 1.965 1.13a2.46 2.46 0 001.093-.262l1.397-.493-.933-1.153a2.338 2.338 0 00-1.613-1.093 2.39 2.39 0 001.388-.567l1.238-.811-1.182-.896a2.46 2.46 0 00-.891-.553c.267-.202.497-.47.675-.793l.858-1.21-1.425-.403a2.338 2.338 0 00-1.637-.09 2.4 2.4 0 00.793-1.19l.595-1.356-1.477-.107c-1.242-.24-2.354.426-2.72 1.636l-.478 1.083a8.257 8.257 0 00-.961-.937l1.144-.61c1.182-.455 1.763-1.613 1.43-2.832l-.215-1.468-1.309.694c-1.182.455-1.763 1.613-1.43 2.837l.178 1.21a8 8 0 00-1.266-.797l.558-1.018c.74-1.027.596-2.317-.356-3.156L5.909 0l-.713 1.299c-.741 1.027-.596 2.316.356 3.156l.47.525c-.104-.042-.203-.084-.31-.122a.42.42 0 00-.479.16l-.769-.882c-.713-1.046-1.97-1.355-3.085-.755L0 3.925l.97 1.116c.47.69 1.173 1.06 1.923 1.06.127 0 .254-.014.375-.038-.595.23-1.083.708-1.34 1.384l-.685 1.317 1.467.202c.22.056.441.084.657.084.38 0 .74-.093 1.06-.262-.117.347-.16.731-.103 1.135l.037 1.482 1.383-.53c.113-.029.22-.07.324-.113a2.62 2.62 0 00-.084.352l-.399 1.425 1.477-.098c.019 0 .038-.005.056 0a2.5 2.5 0 00-.59.783L5.73 14.47l1.445.333c.168.061.337.099.506.122a2.33 2.33 0 00-1.641.9l-1.055 1.041 1.336.643c.418.267.868.399 1.304.399.684 0 1.346-.315 1.829-.92l.056-.056c-1.318 3.184-4.155 5.52-7.892 6.232a.421.421 0 00.075.835c.028 0 .051-.005.08-.01 3.803-.726 6.738-3.01 8.253-6.147l-.056 1.243c-.212 1.247.487 2.34 1.711 2.677l1.374.558.07-1.482c.211-1.247-.487-2.34-1.711-2.677l-1.28-.525c.23-.507.417-1.032.576-1.576l.179.628c.197 1.248 1.205 2.068 2.47 1.998l1.478.098-.403-1.425c-.197-1.252-1.215-2.068-2.471-1.998l-1.06-.07c.098-.464.173-.938.215-1.421l.352.45zM9.53 2.81l.328-.169.047.31.01.051c.229.811-.146 1.557-.934 1.852l-.328.17-.047-.31-.01-.052c-.234-.811.141-1.557.934-1.852zM5.89 1.774l.184-.324.21.234.038.038c.638.553.732 1.379.23 2.059l-.183.323-.206-.234-.038-.038c-.637-.548-.731-1.378-.234-2.058zm4.925 17.444l.018-.366.291.117.052.02c.816.215 1.266.913 1.116 1.748l-.019.366-.29-.117-.052-.019c-.816-.216-1.266-.92-1.116-1.75zm1.153-2.997h.028c.84-.06 1.492.47 1.613 1.304l.099.356-.342-.023h-.029c-.834.06-1.49-.469-1.613-1.304l-.098-.356.342.023zm-.802-3.273c0-.122.01-.239.01-.36a8.723 8.723 0 00-.108-1.22l.53.403c.37.361.806.577 1.261.652a2.456 2.456 0 00-.914.253l-.779.272zm-.59-3.362l1.036.295c.065.029.131.052.192.07-.052.038-.103.066-.155.109l-.76.497a6.88 6.88 0 00-.314-.971zm3.713 4.422l.23.29-.295.104-.052.023c-.75.38-1.552.155-1.993-.562l-.23-.291.296-.103.051-.024c.75-.384 1.553-.16 1.993.563zm.258-2.992l-.262.174-.043.033c-.642.553-1.472.52-2.072-.07l-.29-.226.262-.173.042-.033c.638-.554 1.472-.52 2.073.07l.29.225zm-.816-3.02l.352.103-.183.258-.028.047c-.394.746-1.182 1.023-1.955.69l-.352-.104.183-.257.028-.047c.399-.746 1.182-1.023 1.955-.69zm-3.353-1.58l.02-.052c.234-.81.947-1.242 1.777-1.069l.365.028-.126.286-.02.052c-.234.811-.951 1.238-1.776 1.07L10.25 6.7l.127-.286zm.099 1.149c.169.033.338.051.502.051.248 0 .483-.037.708-.107a2.43 2.43 0 00-.643.76l-.647.909a8.292 8.292 0 00-1.031-1.693l1.111.08zM9.393 9.05l-.938.061a2.465 2.465 0 00-1.008.16c.089-.32.122-.666.07-1.032l-.038-1.458a7.366 7.366 0 011.914 2.27zM1.66 4.553l-.24-.281.292-.113.051-.023c.736-.408 1.548-.211 2.012.492l.24.282-.292.112-.051.024c-.736.408-1.548.206-2.012-.493zm2.396 1.243l1.112-.436a.416.416 0 00.262.295 7.004 7.004 0 012.03 1.112l-1.364.52c-.206.052-.39.132-.563.22l.685-1.317-1.468-.202a2.423 2.423 0 00-.999-.051c.104-.043.207-.085.305-.141zm-1.144 2.35l-.366-.057.146-.277.023-.051c.286-.793 1.027-1.177 1.843-.952l.366.056-.146.277-.023.051c-.29.793-1.032 1.177-1.843.952zm2.617 1.917l-.347.127-.01-.314-.004-.057C5.036 8.985 5.5 8.295 6.32 8.1l.347-.127.01.314.004.056c.132.835-.333 1.524-1.153 1.721zm1.538 1.534l-.343.023.085-.3.01-.056c.117-.797.707-1.309 1.49-1.309.038 0 .076 0 .118.005h.028l.342-.023-.084.3-.01.056c-.122.835-.76 1.36-1.608 1.308l-.028-.004zm2.466-1.154l.197-.699c.324.77.52 1.604.577 2.472l-.84-.193a2.593 2.593 0 00-.712-.14 2.32 2.32 0 00.778-1.44zm-2.443 3.48l.17-.263.027-.047c.357-.764 1.13-1.078 1.918-.783l.361.084-.169.263-.028.047c-.356.764-1.13 1.083-1.918.783l-.36-.084zm1.754 2.494l-.037.043c-.516.665-1.342.801-2.045.342l-.328-.164.225-.22.037-.043c.516-.666 1.337-.802 2.045-.342l.328.164-.225.22zm.333-1.106a2.468 2.468 0 00-.957-.361c.802-.066 1.515-.54 1.9-1.346l.192-.3a10.99 10.99 0 01-.366 2.377l-.769-.37z" fill="#000"/></svg>