<svg width="32" height="20" fill="none" xmlns="http://www.w3.org/2000/svg"><path d="M8.481 5.45a.469.469 0 100-.938.469.469 0 000 .938zm3.007 0a.469.469 0 100-.937.469.469 0 000 .937zM9.981 7.419a.469.469 0 100-.938.469.469 0 000 .938zm3.007 0a.469.469 0 100-.938.469.469 0 000 .938zm-9.05 0a.469.469 0 100-.938.469.469 0 000 .938zm3.037 0a.469.469 0 100-.938.469.469 0 000 .938zm3.006-3.944a.469.469 0 100-.938.469.469 0 000 .938zm-3.006 0a.469.469 0 100-.938.469.469 0 000 .938zM5.506 5.45a.469.469 0 100-.938.469.469 0 000 .938z" fill="#000"/><path d="M30.525 8.019h-4.469a.468.468 0 100 .937h4.469a.53.53 0 01.531.532v.156a.53.53 0 01-.444.525L16.42 12.53a.47.47 0 00-.394.463V15.5a3.542 3.542 0 01-3.537 3.538h-8.02A3.542 3.542 0 01.932 15.5V8.956h22.813a.468.468 0 100-.937h-6.938a21.93 21.93 0 00-2.062-3.806C12.856 1.456 10.688 0 8.48 0 6.275 0 4.1 1.456 2.206 4.213.813 6.237.056 8.238.025 8.319v.006c-.006.013-.006.025-.013.038 0 .006 0 .006-.006.012C0 8.387 0 8.4 0 8.419V15.5a4.478 4.478 0 004.475 4.475h8.019a4.478 4.478 0 004.475-4.475v-2.106l13.8-2.3A1.47 1.47 0 0032 9.644v-.156a1.48 1.48 0 00-1.475-1.47zM8.481.937c3.832 0 6.488 5.232 7.313 7.075H1.169C1.988 6.17 4.644.937 8.48.937z" fill="#000"/></svg>