<svg width="21" height="24" fill="none" xmlns="http://www.w3.org/2000/svg"><g clip-path="url(#clip0)" fill="#000"><path d="M20.482 10.145l-.178-.71-.658.536a5.304 5.304 0 00-.596-1.216l-.127-.179-.22-.019a5.056 5.056 0 00-.926.038l.291-.888-.812.197a9.861 9.861 0 00-.742.217v-.005c.103-5.354-2.152-7.73-2.41-7.98-.005-.005-.01-.005-.014-.01-.005-.004-.01-.013-.014-.018-.033-.023-.066-.038-.103-.056-.02-.01-.033-.02-.052-.029A.53.53 0 0013.728 0h-.004c-.357.038-3.603.484-6.89 4.753a12.02 12.02 0 00-.526.892c-1.494-1.07-2.635-1.343-2.969-1.404a.463.463 0 00-.38.103c-.17.146-1.174 1.062-1.968 3.03-.01.023-.019.042-.028.066C.493 8.628.099 10.182 0 12.178c.038 1.156.216 2.335.535 3.5.32 1.164.766 2.268 1.344 3.315 1.343 2.02 2.564 2.522 3.56 2.522.592 0 1.108-.178 1.517-.319.216-.075 1.15-.338 1.305-.371.465.944 1.264 1.334 1.846 1.616a30.12 30.12 0 011.39.789c.498.328 1.165.77 2.09.77.879 0 1.987-.4 3.4-1.677a14.918 14.918 0 002.096-2.855 14.95 14.95 0 001.395-3.297c.563-2.753.314-4.796.004-6.026zm-3.03-.554c.423-.09.748-.108.959-.113.122.211.3.578.465 1.113l-2.381 1.926.958-2.926zM12.62 1.249a20.504 20.504 0 00-1.137 1.94.47.47 0 00.193.63c.07.037.146.051.216.051.17 0 .329-.09.413-.249.526-1 1-1.766 1.49-2.419.633.836 1.864 2.969 1.789 6.857a6.938 6.938 0 01-.057.437.14.14 0 00-.037.019c-.123.056-.25.113-.38.179l-.254.126-.146.075c-.474.254-.944.54-1.414.865-.033.018-.06.042-.094.065a13.881 13.881 0 00-.756.569c-.06.051-.127.103-.192.155-.085.066-.165.136-.25.206-.15.127-.3.259-.45.395a14.813 14.813 0 00-1.658 2.133c-.15.234-.296.474-.437.718l-.056.103c-.16.282-.306.568-.446.86-.005.004-.005.014-.01.023l-.01.024-.013.028-.047.103c.366-2.996 1.038-5.81 2.01-8.37a.467.467 0 00-.874-.328c-1.024 2.71-1.728 5.692-2.094 8.872-.085-.024-.165-.052-.254-.075-1.024-.287-2.301-.64-2.24-3.748.108-1.08.357-2.17.732-3.241.198-.564.442-1.132.724-1.695 0-.005 0-.005.004-.01.221-.437.456-.86.71-1.254 1.958-2.536 3.841-3.598 5.025-4.044zM7.98 19.933a22.7 22.7 0 00-1.325.385c-1.005.347-2.254.784-3.978-1.804a13.776 13.776 0 01-1.24-3.08 14.01 14.01 0 01-.502-3.246c.089-1.738.408-3.1.798-4.157.7-.033 1.4-.127 2.076-.296a.468.468 0 00-.225-.906 9.994 9.994 0 01-1.447.24c.488-1 1-1.597 1.263-1.865.423.108 1.334.423 2.485 1.273-.014.028-.024.06-.038.089a14.378 14.378 0 00-.559 1.367 15.19 15.19 0 00-.784 3.49c-.075 3.865 1.804 4.39 2.921 4.7.221.062.879.343.893.343h.019c-.01.024-.014.052-.024.08-.09.245-.164.48-.23.705-.005.014-.005.023-.01.037a9.18 9.18 0 00-.117.71c-.01.075-.014.15-.023.225-.014.146-.029.296-.038.432-.005.075-.005.141-.005.216-.004.141 0 .277.005.409.005.051.005.103.01.15.014.174.032.334.06.484.01.005.01.014.015.019zm11.6-3.978a13.985 13.985 0 01-1.3 3.057 13.94 13.94 0 01-1.936 2.649c-2.334 2.109-3.438 1.38-4.325.794a23.638 23.638 0 00-1.498-.855c-.569-.277-1.217-.597-1.522-1.442 0-.01 0-.019-.005-.023-.225-.649-.225-1.536-.005-2.635.057-.198.123-.4.193-.597a14.798 14.798 0 01.61-1.494l.024-.05v-.006a13.429 13.429 0 01.874-1.573c.145-.225.296-.446.45-.657l.005-.005v-.005a13.48 13.48 0 011.071-1.306c.193-.173.385-.338.573-.493.056-.047.113-.089.164-.136.141-.113.277-.22.414-.32l.169-.126c.145-.103.286-.207.427-.3l.127-.085a13.64 13.64 0 011.07-.639c.071-.038.142-.07.207-.103.1-.047.198-.099.292-.146.117-.056.234-.108.352-.155.22-.094.437-.178.634-.249l-2.02 6.176 5.101-4.128c.197 1.15.268 2.785-.146 4.852z"/><path d="M13.583 11.939c-.146.085-3.537 2.175-3.753 6.392a.464.464 0 00.441.489h.024c.244 0 .45-.193.465-.442.188-3.71 3.269-5.622 3.302-5.64a.466.466 0 00-.48-.8z"/></g><defs><clipPath id="clip0"><path fill="#fff" d="M0 0h20.816v24H0z"/></clipPath></defs></svg>