<svg width="32" height="32" fill="none" xmlns="http://www.w3.org/2000/svg"><path d="M21.625 5a.47.47 0 00-.469.469.47.47 0 00.469.468.47.47 0 00.469-.468.47.47 0 00-.469-.469zm5.906 21.563h-2.639a1.17 1.17 0 00.155-.582v-1.097c0-.168.122-.286.295-.286h1.411c.69 0 1.247-.567 1.247-1.265 0-1.336-.52-2.588-1.462-3.535-.793-.792-2.129-.215-2.129.882a.31.31 0 01-.309.31h-1.41c-.156 0-.306.027-.446.083l-.146-.398a.308.308 0 01.183-.394l1.032-.375c.646-.234.98-.951.745-1.598l-.375-1.031a.308.308 0 01.183-.394c1.045-.38 1.106-1.828.098-2.302a4.978 4.978 0 00-3.82-.168c-.647.234-.98.951-.746 1.598l.375 1.031a.307.307 0 01-.182.394l-.638.23a1.218 1.218 0 00-.366-.891l-.778-.778a.306.306 0 010-.436l.778-.778a1.245 1.245 0 000-1.763 4.953 4.953 0 00-3.524-1.457c-1.12 0-1.66 1.35-.882 2.128a.306.306 0 010 .436l-.778.778a1.245 1.245 0 000 1.762l.778.778a.306.306 0 010 .436l-.29.29a1.265 1.265 0 00-.511-.35l-1.032-.376a.292.292 0 01-.173-.16.313.313 0 01-.01-.233l.376-1.032a1.25 1.25 0 00-.746-1.598 4.958 4.958 0 00-3.82.169c-1.003.468-.942 1.917.098 2.296.16.057.244.235.183.394l-.375 1.032a1.25 1.25 0 00.746 1.598l1.03.375c.16.056.245.234.184.394l-.146.393a1.213 1.213 0 00-.445-.084H7.89a.31.31 0 01-.309-.31c0-1.096-1.336-1.673-2.128-.88A5.083 5.083 0 004 23.346c0 .689.558 1.247 1.247 1.247h1.36c.173 0 .3.122.3.286v1.097c0 .21.05.407.145.58H4.469a.47.47 0 00-.469.47c0 .257.21.468.469.468H27.53a.466.466 0 100-.933zm-17.493 0a1.224 1.224 0 00-.783-.282H8.158a.308.308 0 01-.314-.3v-1.097c0-.689-.544-1.223-1.238-1.223h-1.36a.309.309 0 01-.309-.31 4.09 4.09 0 011.191-2.887.308.308 0 01.525.216c0 .689.558 1.247 1.247 1.247l1.36-.005a.33.33 0 01.243.117.383.383 0 00.056.094c.014.033.02.07.02.108v1.087c0 .699.552 1.266 1.232 1.266h1.097c.169 0 .295.122.295.286v1.097c0 .21.052.407.15.58h-2.316v.006zm4.523-.282h-1.097c-.173 0-.319-.136-.319-.3v-1.097c0-.689-.539-1.223-1.232-1.223h-1.097c-.16 0-.296-.15-.296-.328v-1.097c0-.15-.028-.295-.08-.431l.291-.802a1.25 1.25 0 00-.745-1.598l-1.031-.375a.304.304 0 01-.183-.394l.375-1.031a1.25 1.25 0 00-.745-1.599.306.306 0 01-.024-.567 4.029 4.029 0 013.103-.136c.16.056.244.234.183.394l-.375 1.031a1.24 1.24 0 00.745 1.594l1.032.375c.08.028.14.089.178.164a1.244 1.244 0 00.168 1.552l.779.778a.306.306 0 010 .436l-.779.778a1.245 1.245 0 000 1.762l1.229 1.228c-.085.263-.085.544.014.816l.028.08a1.15 1.15 0 00-.122-.01zm.684-1.608l-1.176-1.176a.306.306 0 010-.436l.778-.778a1.245 1.245 0 000-1.763l-.778-.778a.306.306 0 010-.436l.778-.778a1.245 1.245 0 000-1.762c-.713-.75-.867-.774-.867-.994a.3.3 0 01.089-.216l.778-.778a1.245 1.245 0 000-1.762.308.308 0 01.216-.525 4.02 4.02 0 012.868 1.19.306.306 0 010 .436l-.778.778a1.245 1.245 0 000 1.763l.778.778a.306.306 0 010 .436l-.778.778a1.245 1.245 0 000 1.763l.54.539-.718.262a1.24 1.24 0 00-.745 1.594l.375 1.031a.308.308 0 01-.183.394l-1.031.375a2.041 2.041 0 00-.146.065zm2.77-4.73l-.196-.196a.31.31 0 01-.024-.413c.024.075.02.057.22.61zm1.618 4.45l.375 1.03a.308.308 0 01-.183.394l-1.031.375a1.225 1.225 0 00-.525.37h-2.49l-.248-.68a.308.308 0 01.183-.393l1.031-.375c.647-.234.98-.951.746-1.598l-.375-1.032a.305.305 0 01.183-.394l1.03-.374c.16-.057.3-.146.423-.258l.004-.005.014-.014c.352-.342.474-.858.305-1.317L18.7 19.09a.308.308 0 01.183-.394l1.031-.375c.647-.235.98-.947.745-1.599l-.375-1.03a.308.308 0 01.183-.395 4.029 4.029 0 013.103.136.307.307 0 01-.023.568c-.647.234-.98.946-.745 1.593l.375 1.032a.308.308 0 01-.183.393l-1.032.375c-.646.235-.98.952-.745 1.599l.328.895c.005.07.028.14.066.202a.305.305 0 01-.202.328l-1.03.375a1.25 1.25 0 00-.746 1.598zm4.476.487v1.097c0 .173-.168.253-.323.253h-1.097c-.276 0-.553.117-.787.328h-1.486c.459-.31.675-.905.473-1.458l-.375-1.031a.308.308 0 01.183-.394l1.031-.375a1.24 1.24 0 00.806-1.34.343.343 0 01.15-.043h1.411c.69 0 1.247-.553 1.247-1.242 0-.277.333-.413.525-.216a4.005 4.005 0 011.195 2.87c0 .173-.145.327-.309.327h-1.41c-.695 0-1.234.54-1.234 1.224zM18.344 5.938a1.874 1.874 0 10-.001 3.748 1.874 1.874 0 000-3.748zm0 2.812a.94.94 0 01-.938-.938.94.94 0 01.938-.937.94.94 0 01.937.938.94.94 0 01-.937.937z" fill="#000"/><path d="M20.688 10.625a1.41 1.41 0 00-1.407 1.406 1.41 1.41 0 001.407 1.406 1.41 1.41 0 001.406-1.406 1.41 1.41 0 00-1.407-1.406zm0 1.875a.47.47 0 01-.47-.469.47.47 0 01.47-.469.47.47 0 01.468.47.47.47 0 01-.468.468z" fill="#000"/></svg>