<svg width="32" height="32" fill="none" xmlns="http://www.w3.org/2000/svg"><path d="M25.89 9.773a.37.37 0 00-.605.422c1.286 1.828 1.967 3.928 1.967 6.082 0 2.787-1.146 5.482-3.233 7.597-1.573 1.592-3.597 2.782-5.851 3.458-.451-.364-.724-1.089-.85-2.283a2.561 2.561 0 003.746-.269c.063.005.125.005.188.005a2.574 2.574 0 002.494-3.199 4.124 4.124 0 001.717-1.323c.537-.71.82-1.56.82-2.451 0-.888-.288-1.746-.815-2.451.513-.48.81-1.156.81-1.875a2.556 2.556 0 00-2.091-2.523 2.565 2.565 0 00-1.885-2.413 2.961 2.961 0 00-2.849-2.158c-.657 0-1.266.216-1.755.58.273-.647.647-1.194 1.098-1.554 2.182.763 4.115 2.015 5.597 3.655a.371.371 0 00.552-.494c-2.22-2.45-5.381-4.081-8.897-4.575a.389.389 0 00-.106 0c-3.29.465-6.307 1.942-8.494 4.158C5.223 10.416 4 13.299 4 16.277c0 2.978 1.223 5.86 3.448 8.115 2.187 2.216 5.204 3.693 8.5 4.158.018.005.033.005.052.005.02 0 .034 0 .053-.005 3.29-.465 6.307-1.942 8.499-4.158C26.772 22.138 28 19.255 28 16.277c-.01-2.302-.734-4.552-2.11-6.504zm-6.437-2.638c1.065 0 1.981.758 2.178 1.799a.368.368 0 00.297.293 1.824 1.824 0 011.51 1.707 2.546 2.546 0 00-1.553.739.37.37 0 00.259.633.364.364 0 00.259-.11 1.821 1.821 0 011.295-.538c.01 0 .019 0 .024-.005.019.005.033.005.053.005.983.043 1.75.844 1.75 1.828 0 .508-.21.983-.57 1.328a4.014 4.014 0 00-2.754-1.079.366.366 0 00-.369.37c0 .206.163.369.37.369a3.32 3.32 0 012.364.978c.02.02.038.034.058.048a.517.517 0 00.043.062 3.32 3.32 0 01.873 2.255 3.31 3.31 0 01-.672 2.01 3.4 3.4 0 01-1.41 1.083 2.567 2.567 0 00-2.211-1.256c-.686 0-1.333.268-1.818.753a.37.37 0 00.523.522 1.821 1.821 0 011.295-.537 1.826 1.826 0 011.832 1.827c0 .93-.695 1.698-1.597 1.813a2.61 2.61 0 00.149-.863.366.366 0 00-.37-.37.366.366 0 00-.369.37 1.833 1.833 0 01-1.827 1.827 1.835 1.835 0 01-1.832-1.832c0-.508.206-.983.575-1.333a.369.369 0 00.038-.494 2.864 2.864 0 01-.613-1.784c0-.902.407-1.736 1.117-2.293l.01-.01a2.875 2.875 0 011.78-.608.367.367 0 00.368-.37.366.366 0 00-.369-.37c-.715 0-1.39.202-1.98.586a3.444 3.444 0 01-.922-2.34c0-.912.355-1.765.993-2.413 0 0 0-.005.005-.005a3.418 3.418 0 012.437-1.017.366.366 0 00.369-.369.366.366 0 00-.37-.37 4.136 4.136 0 00-2.719 1.008 2.225 2.225 0 01-.715-1.63 2.22 2.22 0 012.216-2.217zM4.74 16.277c0-2.787 1.146-5.482 3.232-7.597 1.425-1.444 3.223-2.556 5.223-3.257.451.36.83.902 1.099 1.55a2.96 2.96 0 00-4.605 1.582 2.566 2.566 0 00-1.885 2.413 2.564 2.564 0 00-2.09 2.522c0 .715.297 1.391.81 1.876a4.078 4.078 0 00-.806 2.714c.014.202.192.36.393.346a.37.37 0 00.346-.394c-.005-.072-.005-.143-.005-.215 0-.835.312-1.636.873-2.255a.183.183 0 00.043-.062.415.415 0 00.057-.048 3.32 3.32 0 012.365-.978c.206 0 .37-.163.37-.37a.366.366 0 00-.37-.369 4.05 4.05 0 00-2.767 1.084 1.83 1.83 0 011.18-3.156c.019 0 .033-.005.052-.005.01.005.02.005.024.005.49 0 .95.192 1.295.537.072.072.168.11.26.11a.37.37 0 00.259-.633 2.547 2.547 0 00-1.555-.738 1.828 1.828 0 011.511-1.708.362.362 0 00.297-.292 2.224 2.224 0 012.178-1.799c1.223 0 2.22.998 2.22 2.22 0 .624-.263 1.21-.714 1.632a4.136 4.136 0 00-2.72-1.008.366.366 0 00-.369.37c0 .206.163.369.37.369a3.398 3.398 0 012.44 1.022c.643.647.993 1.506.993 2.412a3.43 3.43 0 01-.93 2.345 3.602 3.602 0 00-1.98-.585.366.366 0 00-.37.37c0 .206.163.369.37.369.651 0 1.265.21 1.778.609l.01.01a2.895 2.895 0 011.118 2.292c0 .652-.211 1.271-.614 1.784a.369.369 0 00.038.494c.37.35.576.825.576 1.334 0 1.007-.82 1.832-1.833 1.832a1.827 1.827 0 01-1.827-1.828.366.366 0 00-.37-.369.366.366 0 00-.368.37c0 .297.052.59.148.863a1.833 1.833 0 01-1.597-1.813 1.826 1.826 0 011.832-1.827c.49 0 .95.191 1.295.537a.37.37 0 00.523-.523 2.573 2.573 0 00-4.029.504 3.376 3.376 0 01-1.75-1.64.375.375 0 00-.494-.174.375.375 0 00-.173.494 4.106 4.106 0 002.13 2 2.574 2.574 0 002.494 3.2c.062 0 .124 0 .187-.005a2.561 2.561 0 003.745.268c-.124 1.195-.398 1.914-.849 2.283-2.254-.676-4.278-1.865-5.851-3.458-2.062-2.134-3.213-4.83-3.213-7.616zm11.256 11.535c-.46-.067-.911-.154-1.357-.26.604-.776.858-2.129.858-4.383 0-.595-.21-1.175-.585-1.63.384-.59.585-1.272.585-1.981 0-.988-.393-1.919-1.088-2.6a4.184 4.184 0 001.088-2.81c0-.97-.33-1.89-.935-2.634.59-.556.935-1.338.935-2.158 0-.93-.182-1.851-.522-2.671-.255-.605-.58-1.118-.964-1.516A15.288 15.288 0 0116 4.742c.681.1 1.343.24 1.99.427a4.89 4.89 0 00-.964 1.516 7.017 7.017 0 00-.522 2.671c0 .82.345 1.602.935 2.158a4.157 4.157 0 00-.935 2.634c0 1.04.393 2.047 1.088 2.81a3.626 3.626 0 00-1.088 2.6c0 .714.201 1.39.585 1.98a2.582 2.582 0 00-.585 1.631c0 2.25.254 3.602.858 4.384-.455.105-.906.192-1.367.259z" fill="#000"/></svg>