<svg width="58" height="73" fill="none" xmlns="http://www.w3.org/2000/svg"><path d="M29 0C18.913 0 0 7.684 0 29.456S29 73 29 73s29-21.772 29-43.544S39.087 0 29 0z" fill="#0F5A47"/><path d="M11.096 22.412c0-1.665.504-3.201 1.639-4.354s2.521-1.665 4.16-1.665c1.766 0 3.153.512 4.288 1.537l-.757 1.28c-.378-.384-.883-.64-1.513-.896-.63-.256-1.26-.384-1.765-.384-1.261 0-2.396.384-3.152 1.28-.757.897-1.135 1.922-1.135 3.202 0 1.281.378 2.434 1.135 3.33.756.897 1.89 1.409 3.152 1.409.63 0 1.26-.128 1.891-.384.63-.256 1.135-.64 1.64-1.153l.882 1.153c-1.261 1.28-2.774 1.92-4.413 1.92-1.64 0-3.152-.64-4.287-1.792-1.261-1.28-1.765-2.818-1.765-4.483zm12.356 5.891V16.521h1.64v5.123h6.051V16.52h1.64v11.782h-1.64V23.18h-6.052v5.122h-1.639zm11.6-6.019c0-1.665.504-3.073 1.64-4.226 1.134-1.153 2.521-1.665 4.286-1.665 1.765 0 3.152.512 4.287 1.665 1.135 1.153 1.64 2.561 1.64 4.226 0 1.793-.505 3.202-1.64 4.355-1.135 1.152-2.522 1.793-4.287 1.793-1.765 0-3.152-.64-4.287-1.793-1.009-1.153-1.639-2.562-1.639-4.355zm1.64 0c0 1.281.377 2.434 1.26 3.33.883.897 1.891 1.28 3.026 1.28 1.261 0 2.27-.383 3.026-1.28.757-.896 1.261-2.049 1.261-3.33 0-1.28-.378-2.305-1.26-3.201-.757-.897-1.766-1.281-3.027-1.281-1.26 0-2.27.384-3.026 1.28-.756.897-1.26 1.922-1.26 3.202zM11.6 37.78c0-1.664.504-3.201 1.639-4.354s2.522-1.665 4.16-1.665c1.766 0 3.153.512 4.288 1.537l-.757 1.28c-.378-.383-.882-.64-1.513-.896-.63-.256-1.26-.384-1.765-.384-1.26 0-2.396.384-3.152 1.28-.757.897-1.135 1.922-1.135 3.203 0 1.28.378 2.433 1.135 3.33.756.896 1.891 1.408 3.152 1.408.63 0 1.26-.128 1.891-.384.63-.256 1.135-.64 1.64-1.153l.882 1.153c-1.26 1.28-2.774 1.921-4.413 1.921-1.64 0-3.152-.64-4.287-1.793-1.26-1.28-1.765-2.818-1.765-4.482zm11.474 0c0-1.664.504-3.201 1.639-4.354s2.522-1.665 4.16-1.665c1.766 0 3.153.512 4.288 1.537l-.883 1.28c-.378-.383-.882-.64-1.513-.896-.63-.256-1.26-.384-1.765-.384-1.261 0-2.396.384-3.152 1.28-.757.897-1.135 1.922-1.135 3.203 0 1.28.378 2.433 1.135 3.33.756.896 1.891 1.408 3.152 1.408.63 0 1.26-.128 1.891-.384.63-.256 1.135-.64 1.64-1.153l.882 1.153c-1.26 1.28-2.774 1.921-4.413 1.921-1.765 0-3.152-.64-4.287-1.793-1.135-1.28-1.64-2.818-1.64-4.482zm11.474-.127c0-1.666.504-3.074 1.639-4.227 1.135-1.153 2.522-1.665 4.287-1.665 1.765 0 3.152.512 4.287 1.665 1.135 1.153 1.639 2.561 1.639 4.227 0 1.792-.504 3.201-1.64 4.354-1.134 1.153-2.52 1.793-4.286 1.793-1.765 0-3.152-.64-4.287-1.793-1.135-1.153-1.64-2.562-1.64-4.354zm1.639 0c0 1.28.378 2.433 1.26 3.33.883.896 1.892 1.28 3.027 1.28 1.26 0 2.27-.384 3.026-1.28.757-.897 1.26-2.05 1.26-3.33 0-1.281-.377-2.306-1.26-3.202-.757-.897-1.765-1.281-3.026-1.281s-2.27.384-3.026 1.28c-.883.897-1.261 1.922-1.261 3.203z" fill="#fff"/></svg>